<svg xmlns="http://www.w3.org/2000/svg" viewBox="0 0 506.14 78.57"><defs><style>.cls-1{fill:#fff;}</style></defs><g id="Layer_2" data-name="Layer 2"><g id="Layer_1-2" data-name="Layer 1"><path class="cls-1" d="M275.37,0q25,0,25,20.43a40.18,40.18,0,0,1-.73,7.36L296,48.53Q293.51,63,285.22,69.9t-23.34,6.95q-15,0-20.94-6.95-4-4.77-4.05-13.17a45.46,45.46,0,0,1,.83-8.2l3.63-20.74Q246.23,0,275.37,0ZM264.68,60.77a12.21,12.21,0,0,0,8.3-2.7q3.12-2.68,4.36-10l3.52-19.91a25.06,25.06,0,0,0,.31-3.74q0-8.4-8.5-8.39-10.68.2-12.76,12.13l-3.52,19.91a33.73,33.73,0,0,0-.42,5.39Q256,60.77,264.68,60.77Z"/><path class="cls-1" d="M25,78.57q-25,0-25-18.14a32.22,32.22,0,0,1,.62-6L2,46.74H20.64L20,50.16a33,33,0,0,0-.42,5.29A7.13,7.13,0,0,0,21,59.91q2.07,2.6,6.84,2.59a11.29,11.29,0,0,0,7.73-2.59q3-2.59,4.2-9.54l8.5-48H66.79L58.08,51.82Q55.68,65.6,47.7,72.09T25,78.57Z"/><path class="cls-1" d="M87.42,55.86Q87.42,63,97.74,63t10.32-6.43q0-3.42-3.53-5.6A34.58,34.58,0,0,0,96,47.36q-5-1.45-10.06-3.37a21,21,0,0,1-8.56-6,15.09,15.09,0,0,1-3.52-10.21q0-26,33.49-26,12.24,0,18.52,4.61a15,15,0,0,1,6.27,12.81,21,21,0,0,1-.78,5.76,12.93,12.93,0,0,1-1.61,3.89L128.9,30H110.55a8.34,8.34,0,0,0,2.28-6q0-6.75-8.81-6.75-11.1,0-11.1,7.06c0,2.35,1.17,4.21,3.52,5.6A30.89,30.89,0,0,0,105,33.2a104.71,104.71,0,0,1,10.11,3A19.64,19.64,0,0,1,123.72,42q3.52,4.09,3.52,10.63,0,13.17-7.88,19.55T95.1,78.57q-16.39,0-22.4-5.8-4.47-4.36-4.46-12a35,35,0,0,1,.62-6.33l.31-1.66H87.84L87.63,54A9.45,9.45,0,0,0,87.42,55.86Z"/><path class="cls-1" d="M177.2,2.45l11.09,35.78L212.14,2.45h19.6L218.57,77.12H199.8L207.27,35l-16,25.09H177.71L170.66,35l-7.46,42.1H144.53L157.7,2.45Z"/><path class="cls-1" d="M372.88,2.45,359.82,77.12H341.05L328,36.26l-7.05,40.86H302.16L315.33,2.45h19.29l12.86,38.17,6.74-38.17Z"/><path class="cls-1" d="M446.82,2.45,423.08,40.1l10.57,37H414l-7.78-27.38H398l-4.87,27.38H374.44L387.61,2.45h18.67l-5.5,31.12h6.64l19.7-31.12Z"/><path class="cls-1" d="M461.45,55.86q0,7.16,10.32,7.16t10.31-6.43q0-3.42-3.52-5.6A34.66,34.66,0,0,0,470,47.36q-5-1.45-10.06-3.37a20.93,20.93,0,0,1-8.55-6,15.1,15.1,0,0,1-3.53-10.21q0-26,33.5-26,12.24,0,18.51,4.61a15,15,0,0,1,6.27,12.81,21.36,21.36,0,0,1-.77,5.76,13.2,13.2,0,0,1-1.61,3.89L502.93,30H484.57a8.34,8.34,0,0,0,2.28-6q0-6.75-8.81-6.75-11.1,0-11.1,7.06c0,2.35,1.18,4.21,3.53,5.6A30.82,30.82,0,0,0,479,33.2a104.07,104.07,0,0,1,10.12,3,19.66,19.66,0,0,1,8.6,5.86,15.71,15.71,0,0,1,3.53,10.63q0,13.17-7.88,19.55t-24.27,6.37q-16.38,0-22.4-5.8-4.46-4.36-4.46-12a36,36,0,0,1,.62-6.33l.31-1.66h18.67L461.65,54A10.19,10.19,0,0,0,461.45,55.86Z"/></g></g></svg>